<?xml version="1.0" encoding="UTF-8" standalone="no"?><!DOCTYPE svg PUBLIC "-//W3C//DTD SVG 1.1//EN" "http://www.w3.org/Graphics/SVG/1.1/DTD/svg11.dtd"><svg width="100%" height="100%" viewBox="0 0 1400 1095" version="1.1" xmlns="http://www.w3.org/2000/svg" xmlns:xlink="http://www.w3.org/1999/xlink" xml:space="preserve" xmlns:serif="http://www.serif.com/" style="fill-rule:evenodd;clip-rule:evenodd;stroke-linejoin:round;stroke-miterlimit:2;"><rect id="Prancheta2" x="0" y="0" width="1400" height="1095" style="fill:none;"/><g id="Prancheta21" serif:id="Prancheta2"><g transform="matrix(1,0,0,1,-186.117814,116.25121)"><g transform="matrix(185.621322,0,3.240032,185.621322,298.719141,488.234536)"><path d="M0.143,-0.368c0,-0.161 0.142,-0.271 0.28,-0.271c0.056,0 0.107,0.008 0.15,0.029l0.012,0.064l0.088,0l0,-0.121c-0.08,-0.05 -0.162,-0.072 -0.25,-0.072c-0.204,0 -0.38,0.166 -0.38,0.371c0,0.205 0.176,0.371 0.38,0.371c0.113,-0 0.217,-0.051 0.288,-0.13l0,-0.296l-0.34,0l0,0.09l0.24,0l0,0.165c-0.049,0.043 -0.114,0.071 -0.188,0.071c-0.138,0 -0.28,-0.11 -0.28,-0.271Z" style="fill:#fdcc0d;fill-rule:nonzero;"/></g><g transform="matrix(185.621322,0,3.240032,185.621322,441.83318,488.234536)"><path d="M0.634,-0.097l-0.07,0c-0.016,0 -0.031,-0.014 -0.042,-0.039l-0.047,-0.104c0.098,-0.035 0.169,-0.13 0.169,-0.24c0,-0.141 -0.114,-0.255 -0.255,-0.255l-0.329,0l0,0.735l0.1,-0l0,-0.225l0.186,0c0.016,0.001 0.032,0.015 0.042,0.04l0.046,0.098c0.027,0.058 0.076,0.09 0.13,0.09l0.07,-0.01l0,-0.09Zm-0.245,-0.543c0.083,0 0.155,0.076 0.155,0.16c0,0.083 -0.073,0.16 -0.155,0.16l-0.229,0l0,-0.32l0.229,0Z" style="fill:#fdcc0d;fill-rule:nonzero;"/></g><g transform="matrix(185.621322,0,3.240032,185.621322,563.229525,488.234536)"><path d="M0.22,-0.201l0.36,0l0.06,0.201l0.1,-0l-0.22,-0.735l-0.24,0l-0.22,0.735l0.1,-0l0.06,-0.201Zm0.133,-0.444l0.094,0l0.106,0.354l-0.306,0l0.106,-0.354Z" style="fill:#fdcc0d;fill-rule:nonzero;"/></g><g transform="matrix(185.621322,0,3.240032,185.621322,711.726582,488.234536)"><path d="M0.576,-0.085l-0.023,0l-0.305,-0.65l-0.188,0l0,0.735l0.1,-0l0,-0.65l0.023,0l0.305,0.65l0.188,-0l0,-0.735l-0.1,0l0,0.65Z" style="fill:#fdcc0d;fill-rule:nonzero;"/></g><g transform="matrix(185.621322,0,3.240032,185.621322,848.343875,488.234536)"><path d="M0.426,-0.355l-0.01,0l-0.175,-0.38l-0.181,0l0,0.735l0.1,-0l0,-0.65l0.009,0l0.176,0.38l0.153,0l0.175,-0.38l0.01,0l0,0.65l0.1,-0l0,-0.735l-0.181,0l-0.176,0.38Z" style="fill:#fff;fill-rule:nonzero;"/></g><g transform="matrix(185.621322,0,3.240032,185.621322,1004.822649,488.234536)"><rect x="0.07" y="-0.735" width="0.1" height="0.735" style="fill:#fff;fill-rule:nonzero;"/></g><g transform="matrix(185.621322,0,3.240032,185.621322,1047.515553,488.234536)"><path d="M0.576,-0.085l-0.023,0l-0.305,-0.65l-0.188,0l0,0.735l0.1,-0l0,-0.65l0.023,0l0.305,0.65l0.188,-0l0,-0.735l-0.1,0l0,0.65Z" style="fill:#fff;fill-rule:nonzero;"/></g><g transform="matrix(185.621322,0,3.240032,185.621322,1184.132846,488.234536)"><path d="M0.22,-0.201l0.36,0l0.06,0.201l0.1,-0l-0.22,-0.735l-0.24,0l-0.22,0.735l0.1,-0l0.06,-0.201Zm0.133,-0.444l0.094,0l0.106,0.354l-0.306,0l0.106,-0.354Z" style="fill:#fff;fill-rule:nonzero;"/></g><g transform="matrix(185.621322,0,3.240032,185.621322,1332.629903,488.234536)"><path d="M0.386,-0.639c0.059,0 0.126,0.009 0.178,0.033l0.012,0.06l0.088,0l0,-0.121c-0.08,-0.05 -0.19,-0.072 -0.278,-0.072c-0.123,0 -0.305,0.059 -0.305,0.202c-0,0.166 0.172,0.199 0.32,0.199c0.112,0 0.194,0.028 0.194,0.117c0,0.061 -0.082,0.124 -0.216,0.124c-0.113,0 -0.202,-0.039 -0.267,-0.103l-0.059,0.087c0.082,0.072 0.189,0.116 0.327,0.116c0.156,-0 0.326,-0.086 0.326,-0.224c0,-0.177 -0.148,-0.22 -0.31,-0.22c-0.11,0 -0.204,-0.019 -0.204,-0.096c0,-0.056 0.094,-0.102 0.194,-0.102Z" style="fill:#fff;fill-rule:nonzero;"/></g><rect x="298.719" y="502.156" width="549.625" height="9.281" style="fill:#fdcc0d;"/><rect x="848.344" y="502.156" width="625.173" height="9.281" style="fill:#fff;"/></g></g></svg>